<?xml version="1.0" encoding="utf-8"?>
<svg viewBox="186.678 64.772 971.432 245.799" xmlns="http://www.w3.org/2000/svg">
  <defs>
    <mask id="b" fill="#fff">
      <path d="M 591.673 271.1 C 1013.15 271.1 2080.65 447.178 2080.65 310.334 C 2080.65 173.49 2559.404 62.291 2137.928 62.291 C 1939.182 62.291 1669.362 65.846 1417.971 51.061 C 1136.244 34.494 871.873 11.645 674.95 36.856 C 302.308 84.563 170.197 271.101 591.673 271.101 Z" fill="#fff" fill-rule="evenodd"/>
    </mask>
  </defs>
  <g fill="#fe9603" fill-rule="evenodd" transform="matrix(1, 0, 0, 1, -636.262871, 23.224609)">
    <path d="M 863.9 287.599 C 1285.377 287.599 2352.877 463.677 2352.877 326.833 C 2352.877 189.989 2831.631 78.79 2410.155 78.79 C 2211.409 78.79 1941.589 82.345 1690.198 67.56 C 1408.471 50.993 1144.1 28.144 947.177 53.355 C 574.535 101.062 442.424 287.6 863.9 287.6 Z" opacity=".5" style="fill: rgb(233, 134, 134);"/>
    <path d="M 775.673 372.1 C 1197.15 372.1 1748.418 551.887 1748.418 415.043 C 1748.418 278.199 2328.359 159.797 1906.883 159.797 C 1485.407 159.797 1199.914 12.801 1199.914 149.645 C 1199.914 286.488 354.197 372.1 775.674 372.1 Z" mask="url(#b)" opacity=".5" style="fill: rgb(223, 73, 73);"/>
  </g>
</svg>